# xmcd CD database file
#
# Track frame offsets:
#	150
#	31114
#	51663
#	75446
#	89009
#	153815
#	173337
#	195371
#	212498
#	241581
#	259676
#	274385
#
# Disc length: 3850 seconds
#
# Revision: 0
# Processed by: cddbd v1.5.2PL0 Copyright (c) Steve Scherf et al.
# Submitted via: CDex 1.70beta2
#
DISCID=8e0f080c
DTITLE=Various Artist - Les Trésors Du Jazz 1954 (6)
DYEAR=2006
DGENRE=Jazz
TTITLE0=Clifford Brown - Max Roach, Joy Spring
TTITLE1=Clifford Brown - Max Roach, Midlama
TTITLE2=Thad Jones, Bitty Ditty
TTITLE3=Clifford Brown, Tiny Capers
TTITLE4=Jam Session Mercury, Move
TTITLE5=June Christy, Something Cool
TTITLE6=Mel Powell, Makin' Whopee
TTITLE7=Mel Powell, Quin And Sonic
TTITLE8=Sonny Rollins, Solid
TTITLE9=Sonny Rollins, Silk 'N' Satin
TTITLE10=Jay and Kay, The Major
TTITLE11=Art Pepper, Nutweg
EXTD=YEAR: 2006
EXTT0=
EXTT1=
EXTT2=
EXTT3=
EXTT4=
EXTT5=
EXTT6=
EXTT7=
EXTT8=
EXTT9=
EXTT10=
EXTT11=
PLAYORDER=
